<svg width="70" height="70" viewBox="0 0 70 70" fill="none" xmlns="http://www.w3.org/2000/svg">
<path d="M37.9095 34.9863C37.9095 36.6689 36.5065 38.0568 34.806 38.0568C33.1054 38.0568 31.7024 36.6689 31.7024 34.9863C31.7024 33.3038 33.1054 31.9158 34.806 31.9158C36.5065 31.9158 37.9095 33.3038 37.9095 34.9863Z" fill="#204593"/>
<path d="M29.7437 34.8673C29.7437 36.4234 28.4683 37.6854 26.8953 37.6854C25.3222 37.6854 24.0466 36.4234 24.0466 34.8673C24.0466 33.3109 25.3222 32.0489 26.8953 32.0489C28.4683 32.0489 29.7437 33.3109 29.7437 34.8673Z" fill="#4692CF"/>
<path d="M29.6035 27.2494C29.6035 28.4694 28.5833 29.4788 27.3502 29.4788C26.1174 29.4788 25.0969 28.4694 25.0969 27.2494C25.0969 26.0296 26.1174 25.0201 27.3502 25.0201C28.5833 24.9781 29.6035 25.9876 29.6035 27.2494Z" fill="#4692CF"/>
<path d="M29.6035 42.8123C29.6035 44.0321 28.5833 45.0415 27.3502 45.0415C26.1174 45.0415 25.0969 44.0321 25.0969 42.8123C25.0969 41.5924 26.1174 40.5828 27.3502 40.5828C28.5833 40.583 29.6035 41.5924 29.6035 42.8123Z" fill="#4692CF"/>
<path d="M45.5145 34.8587C45.5145 36.4572 44.1965 37.719 42.6237 37.719C41.0081 37.719 39.7327 36.4151 39.7327 34.8587C39.7327 33.2603 41.0506 31.9985 42.6237 31.9985C44.1965 31.9985 45.5145 33.2603 45.5145 34.8587Z" fill="#4692CF"/>
<path opacity="0.8" d="M51.8776 34.8157C51.8776 36.0777 50.8573 37.1291 49.5393 37.1291C48.2639 37.1291 47.2009 36.1197 47.2009 34.8157C47.2009 33.5539 48.2214 32.5022 49.5393 32.5022C50.8147 32.5022 51.8776 33.5539 51.8776 34.8157Z" fill="#4692CF"/>
<path opacity="0.8" d="M22.7228 34.8157C22.7228 36.0777 21.7025 37.1291 20.3845 37.1291C19.109 37.1291 18.0461 36.1197 18.0461 34.8157C18.0461 33.5539 19.0666 32.5022 20.3845 32.5022C21.7025 32.5022 22.7228 33.5539 22.7228 34.8157Z" fill="#4692CF"/>
<path opacity="0.3" d="M50.9987 42.6066C50.9987 43.4057 50.361 44.0368 49.5533 44.0368C48.7454 44.0368 48.1077 43.4057 48.1077 42.6066C48.1077 41.8073 48.7454 41.1764 49.5533 41.1764C50.361 41.1764 50.9987 41.8073 50.9987 42.6066Z" fill="#4692CF"/>
<path opacity="0.8" d="M36.6265 20.9824C36.6265 21.9498 35.8188 22.7489 34.841 22.7489C33.8631 22.7489 33.0554 21.9498 33.0554 20.9824C33.0554 20.0149 33.8631 19.2157 34.841 19.2157C35.8188 19.2157 36.6265 20.0149 36.6265 20.9824Z" fill="#4692CF"/>
<path opacity="0.4" d="M29.2744 20.9834C29.2744 21.9508 28.5091 22.7079 27.5313 22.7079C26.5534 22.7079 25.7881 21.9508 25.7881 20.9834C25.7881 20.0159 26.5534 19.2588 27.5313 19.2588C28.5091 19.2588 29.2744 20.0159 29.2744 20.9834Z" fill="#4692CF"/>
<path opacity="0.3" d="M44.328 49.0399C44.328 49.9652 43.5626 50.7223 42.6273 50.7223C41.6921 50.7223 40.9268 49.9652 40.9268 49.0399C40.9268 48.1145 41.6921 47.3574 42.6273 47.3574C43.5626 47.3574 44.328 48.1145 44.328 49.0399Z" fill="#4692CF"/>
<path opacity="0.8" d="M37.1303 49.0392C37.1303 50.0066 36.3226 50.8059 35.3447 50.8059C34.3668 50.8059 33.5591 50.0066 33.5591 49.0392C33.5591 48.0717 34.3668 47.2727 35.3447 47.2727C36.3226 47.2305 37.1303 48.0297 37.1303 49.0392Z" fill="#4692CF"/>
<path opacity="0.3" d="M22.1302 27.2933C22.1302 28.0924 21.4499 28.7655 20.642 28.7655C19.8343 28.7655 19.1541 28.0924 19.1541 27.2933C19.1541 26.4941 19.8343 25.8212 20.642 25.8212C21.4923 25.8632 22.1302 26.4941 22.1302 27.2933Z" fill="#4692CF"/>
<path d="M44.9547 42.5137C44.9547 43.8177 43.8918 44.8693 42.5739 44.8693C41.2559 44.8693 40.1931 43.8177 40.1931 42.5137C40.1931 41.2097 41.2559 40.1583 42.5739 40.1583C43.8918 40.1583 44.9547 41.2097 44.9547 42.5137Z" fill="#4692CF"/>
<path d="M44.8726 27.2494C44.8726 28.4694 43.8521 29.4788 42.6193 29.4788C41.3864 29.4788 40.366 28.4694 40.366 27.2494C40.366 26.0296 41.3864 25.0201 42.6193 25.0201C43.8521 24.9781 44.8726 25.9876 44.8726 27.2494Z" fill="#4692CF"/>
<path d="M37.6897 27.1234C37.6897 28.6376 36.4567 29.8574 34.9262 29.8574C33.3957 29.8574 32.1628 28.6376 32.1628 27.1234C32.1628 25.6091 33.3957 24.3893 34.9262 24.3893C36.4567 24.3893 37.6897 25.6091 37.6897 27.1234Z" fill="#4692CF"/>
<path d="M37.7319 42.8985C37.7319 44.4128 36.4565 45.6746 34.926 45.6746C33.3955 45.6746 32.1201 44.4128 32.1201 42.8985C32.1201 41.3843 33.3955 40.1223 34.926 40.1223C36.4565 40.1223 37.7319 41.3423 37.7319 42.8985Z" fill="#4692CF"/>
<path d="M58.4363 39.4521C57.3735 39.4521 56.4381 40.2092 56.2256 41.2187C55.8855 42.8592 55.3328 44.4154 54.61 45.8877C54.61 45.9297 54.61 45.9297 54.5676 45.9297C54.0999 46.8972 53.5471 47.8224 52.952 48.6637C52.952 48.6637 52.952 48.7059 52.9094 48.7059C51.3789 50.9351 49.4658 52.828 47.2125 54.3422L47.17 54.3842C46.2772 54.9731 45.3843 55.52 44.4064 55.9826C44.4064 55.9826 44.3641 56.0247 44.3641 55.9826C41.9831 57.1184 39.3472 57.8335 36.6262 58.0436C36.5839 58.0436 36.5839 58.0436 36.5839 58.0436C35.5209 58.1278 34.5006 58.1278 33.4377 58.0436H33.3952C33.3526 58.0436 33.3526 58.0436 33.3101 58.0436C30.5467 57.8335 27.9109 57.1184 25.5724 55.9826C25.5299 55.9826 25.5299 55.9826 25.5299 55.9406C24.5522 55.4778 23.6168 54.9311 22.7665 54.3422C22.7665 54.3422 22.724 54.3422 22.724 54.3002C20.4707 52.7859 18.5576 50.8931 17.027 48.6637L16.9845 48.6217C16.3893 47.7384 15.8366 46.855 15.369 45.8877C15.369 45.8877 15.3264 45.8455 15.369 45.8455C14.6462 44.3734 14.0935 42.775 13.7534 41.1767C13.5408 40.125 12.6055 39.4099 11.5426 39.4099H3.80498C2.4445 39.4099 1.33912 40.6297 1.55169 41.9757C2.06187 45.1726 3.03971 48.2012 4.44269 51.0193C4.44269 51.0613 4.44269 51.1033 4.48521 51.1033C5.20797 52.5755 6.05825 54.0057 6.99358 55.3517C6.99358 55.3938 7.03609 55.3938 7.03609 55.4358C9.3744 58.8429 12.3929 61.8292 15.8366 64.1849C15.8791 64.2269 15.8792 64.2269 15.9217 64.2269C17.2822 65.1523 18.7276 65.9936 20.2156 66.6665C20.2581 66.6665 20.2581 66.7087 20.3007 66.7087C23.9994 68.4332 28.0383 69.5688 32.3324 69.9054C32.3749 69.9054 32.3749 69.9054 32.4173 69.9054C32.4598 69.9054 32.4598 69.9054 32.5024 69.9054C34.1605 70.0316 35.776 70.0316 37.3916 69.9054C37.4341 69.9054 37.4341 69.9054 37.4767 69.9054C41.728 69.6108 45.8095 68.4752 49.5082 66.7087C49.5507 66.7087 49.5933 66.7087 49.5933 66.6665C51.0813 65.9514 52.5268 65.1101 53.8873 64.1849C53.9297 64.1849 53.9297 64.1427 53.9723 64.1427C57.416 61.8292 60.4345 58.8429 62.8153 55.4358C62.8153 55.3938 62.8578 55.3938 62.8578 55.3517C63.7932 54.0057 64.6435 52.5755 65.3237 51.1033C65.3663 51.0613 65.3663 51.0613 65.3663 51.0193C66.7268 48.2012 67.7045 45.1726 68.2573 41.9757C68.4698 40.6297 67.407 39.4099 66.004 39.4099H58.4363V39.4521Z" fill="#204593"/>
<path d="M49.9827 13.1246C49.8553 13.1246 49.6853 13.0826 49.5576 12.9984C48.5373 12.3254 47.5169 11.7365 46.4966 11.2739L46.3266 11.1897C46.284 11.1897 46.2415 11.1477 46.1989 11.1056C46.1989 11.1056 46.1564 11.1056 46.114 11.0636C45.8589 10.8953 45.7312 10.6009 45.8163 10.3064C45.8589 10.0961 45.9014 9.8858 45.9438 9.63344C46.114 7.40411 44.3709 5.42718 42.1176 5.25892C42.0325 5.25892 41.9051 5.25892 41.82 5.25892C39.9918 5.25892 38.3764 6.47873 37.8661 8.2033C37.781 8.49774 37.4835 8.70806 37.1859 8.70806C37.1433 8.70806 36.9308 8.70806 36.8882 8.70806C36.8457 8.70806 36.8033 8.70806 36.7607 8.70806C36.1656 8.66599 35.6128 8.66599 35.0177 8.66599C34.4223 8.66599 33.8272 8.70804 33.2746 8.75012H33.232C33.0195 8.75012 32.8493 8.66599 32.6793 8.53981C32.5092 8.37156 32.4667 8.16125 32.5092 7.95092C32.7644 6.35255 33.4446 4.83829 34.4649 3.57642C36.2931 1.34711 38.9715 0.0431709 41.8625 0.0431709C42.0751 0.0431709 42.3302 0.0431735 42.5428 0.0852359C43.1379 0.127299 43.6907 0.21142 44.2007 0.337608C47.8996 1.26298 50.663 4.24942 51.2581 7.99299C51.3432 8.75012 51.3858 9.42311 51.3432 10.0961C51.2583 11.0215 51.0881 11.9048 50.7481 12.7461C50.663 12.9564 50.493 13.1246 50.2804 13.1667C50.1528 13.1246 50.0678 13.1246 49.9827 13.1246Z" fill="#EF3D3B"/>
<path d="M61.8444 37.0546C61.6742 37.0546 61.5041 36.9704 61.3341 36.8443C61.1641 36.6759 61.079 36.4657 61.1216 36.2554C61.2065 35.0775 61.2065 33.8999 61.1216 32.7641C61.1216 32.6379 61.1216 32.4698 61.1216 32.4698C61.1216 32.4278 61.1216 32.3856 61.1216 32.3436C61.1216 32.007 61.3341 31.7547 61.6318 31.6705C61.8444 31.6285 62.0569 31.5443 62.2695 31.4181C64.3102 30.4087 65.1605 27.9691 64.1826 25.95C63.5023 24.562 62.0569 23.6365 60.4839 23.6365C60.1436 23.6365 59.8462 23.6787 59.5059 23.7627C59.4634 23.7627 59.3785 23.7627 59.3359 23.7627C59.2083 23.7627 59.0808 23.7207 58.9533 23.6787C58.8257 23.5945 58.6982 23.4684 58.6557 23.3002V23.258C58.6131 23.216 58.6131 23.174 58.5706 23.0898C58.018 21.9962 57.4228 20.9446 56.785 20.0193C56.6575 19.8509 56.6149 19.5986 56.7 19.3882C56.785 19.178 56.9126 19.0097 57.1252 18.9257C58.188 18.5049 59.2934 18.2946 60.4413 18.2946C60.9515 18.2946 61.4192 18.3367 61.9293 18.4208C64.9903 18.8835 67.6687 20.8184 69.0292 23.5945C69.2843 24.1413 69.4969 24.604 69.6246 25.1087C70.6874 28.7681 69.4544 32.6379 66.4359 34.9936C65.8831 35.4141 65.288 35.7926 64.6503 36.1292C63.8 36.5497 62.9072 36.8021 62.0144 36.9704C61.9293 37.0546 61.8867 37.0546 61.8444 37.0546Z" fill="#4692CF"/>
<path d="M7.97252 37.0471C6.35697 36.7947 4.82644 36.1216 3.55099 35.1122C1.12767 33.1773 -0.190286 30.1909 0.0222875 27.1202C0.0648007 26.5315 0.149831 25.9846 0.277374 25.4799C1.21269 21.8205 4.23124 19.0863 8.01504 18.4976C8.52521 18.4134 8.99286 18.4134 9.50303 18.4134C9.71562 18.4134 9.92818 18.4134 10.1408 18.4134C11.0761 18.4976 12.0114 18.6657 12.8192 19.0023C13.0318 19.0863 13.2018 19.2547 13.2443 19.465C13.3294 19.6752 13.2868 19.8856 13.1593 20.0959C12.4791 21.1054 11.8839 22.1148 11.4162 23.1244L11.3312 23.2506C11.3312 23.2926 11.2461 23.4608 11.2461 23.4608C11.1186 23.7132 10.8635 23.8395 10.6084 23.8395C10.5659 23.8395 10.4809 23.8395 10.4384 23.7973C10.2258 23.7554 10.0132 23.7132 9.80064 23.6712C9.71562 23.6712 9.63059 23.6712 9.50303 23.6712C7.33479 23.6712 5.50667 25.3537 5.37913 27.4568C5.25159 29.3497 6.48451 31.1162 8.31263 31.6631C8.61024 31.7473 8.8228 32.0417 8.8228 32.336C8.8228 32.3782 8.8228 32.4622 8.8228 32.5044C8.8228 32.5884 8.8228 32.6306 8.8228 32.6726C8.8228 32.7146 8.8228 32.7567 8.8228 32.7987C8.73778 34.0607 8.73778 35.1964 8.8228 36.248C8.8228 36.4582 8.73778 36.6685 8.61024 36.8367C8.4827 36.9629 8.31263 37.0471 8.10006 37.0471C8.05755 37.0471 8.01504 37.0471 7.97252 37.0471Z" fill="#4692CF"/>
<path d="M10.7882 23.5492C10.6181 23.5492 10.4481 23.5072 10.3205 23.381C9.0451 22.3716 8.06726 21.0254 7.47206 19.5113C6.36668 16.651 6.7068 13.4122 8.44989 10.8464C8.66246 10.5099 8.91756 10.2154 9.17264 9.92099C10.9582 7.90198 13.5516 6.72423 16.2726 6.72423C17.4629 6.72423 18.6108 6.93454 19.7162 7.35517C20.3539 7.56548 20.9491 7.90198 21.5869 8.3226C22.3521 8.82736 23.0749 9.4583 23.6275 10.1734C23.7551 10.3416 23.7977 10.5519 23.7551 10.7622C23.7126 10.9725 23.5426 11.1408 23.3726 11.267C22.2672 11.8138 21.2893 12.3606 20.3114 13.0336L20.0139 13.2439C19.8862 13.3281 19.7588 13.3701 19.6311 13.3701C19.4611 13.3701 19.2485 13.286 19.1211 13.1598C18.951 12.9915 18.7808 12.8654 18.5683 12.7392C17.888 12.2765 17.0803 12.0241 16.2726 12.0241C14.9121 12.0241 13.5942 12.6971 12.8289 13.8328C11.766 15.4312 11.9361 17.5764 13.254 18.9223C13.5091 19.1747 13.5091 19.5533 13.3391 19.8478C13.2965 19.8898 13.2965 19.9318 13.254 19.974L13.169 20.1002C12.4463 21.1938 11.8511 22.2032 11.3834 23.2127C11.2984 23.423 11.0858 23.5492 10.8732 23.5914C10.9157 23.5492 10.8307 23.5492 10.7882 23.5492Z" fill="#1DAE4B"/>
<path d="M19.9697 13.1656C19.8847 13.1656 19.8422 13.1656 19.7571 13.1235C19.5445 13.0394 19.3745 12.9132 19.2896 12.7029C18.6943 11.1886 18.5242 9.54819 18.7794 7.94982C19.247 4.92131 21.2027 2.27138 24.0086 0.925381C24.6463 0.630943 25.3265 0.378563 26.0493 0.210313C26.7296 0.0420624 27.4524 0 28.1326 0C30.9811 0 33.7444 1.30394 35.5301 3.53325C35.9977 4.08006 36.3805 4.66895 36.678 5.29987C37.0608 6.09907 37.3582 6.98239 37.5282 7.86569C37.5708 8.076 37.4859 8.28633 37.3582 8.45456C37.2308 8.62281 37.0182 8.70694 36.8056 8.70694H36.7631C36.1679 8.66489 35.5726 8.66489 34.9775 8.66489C34.3823 8.66489 33.787 8.70694 33.2344 8.74899L33.0644 8.03395L33.1493 8.74899C33.1067 8.74899 33.0642 8.74899 33.0218 8.74899C32.9793 8.74899 32.8942 8.74899 32.8516 8.74899C32.5541 8.74899 32.2565 8.53869 32.1716 8.24425C32.0865 8.03395 32.0014 7.82364 31.9164 7.61331C31.2362 6.18319 29.7906 5.29987 28.2175 5.29987C27.5798 5.29987 26.9847 5.42607 26.4319 5.72051C24.6888 6.56176 23.7535 8.49663 24.2212 10.3474C24.3063 10.6839 24.1362 11.0204 23.8386 11.1886L23.7535 11.2307C23.6686 11.2728 23.626 11.3148 23.5835 11.3148C22.4355 11.8616 21.4578 12.4505 20.4799 13.0814C20.2673 13.1235 20.0973 13.1656 19.9697 13.1656Z" fill="#FFC113"/>
<path d="M53.4638 18.719C52.8686 19.6024 51.6356 19.8548 50.7854 19.2239C49.8925 18.635 49.6374 17.4151 50.2751 16.5739C50.8705 15.6906 52.1033 15.4382 52.9961 16.0691C53.8464 16.658 54.1015 17.8357 53.4638 18.719Z" fill="#EE538C"/>
<path d="M58.9946 29.992C58.0168 30.4547 56.8689 30.0342 56.4012 29.1087C55.9335 28.1413 56.3587 27.0057 57.294 26.5429C58.272 26.0802 59.4199 26.4587 59.8874 27.4262C60.3976 28.3936 59.9725 29.5293 58.9946 29.992Z" fill="#4692CF"/>
<path d="M11.841 26.6257C12.9038 26.7098 13.7116 27.5931 13.6266 28.6867C13.5416 29.7804 12.6487 30.5375 11.5434 30.4955C10.4805 30.4113 9.67271 29.486 9.71523 28.4344C9.75774 27.3827 10.7781 26.5417 11.841 26.6257Z" fill="#4692CF"/>
<path d="M18.9479 16.2378C19.8407 16.8266 20.0959 18.0464 19.4582 18.9297C18.863 19.8132 17.63 20.0655 16.7372 19.4344C15.8444 18.8457 15.5893 17.6258 16.2271 16.7425C16.8648 15.8592 18.0977 15.6489 18.9479 16.2378Z" fill="#1DAE4B"/>
<path d="M30.3796 10.7614C30.8473 11.7288 30.422 12.8645 29.4868 13.3272C28.5089 13.7899 27.361 13.4113 26.8933 12.4439C26.4258 11.4764 26.8084 10.3407 27.7861 9.87805C28.7215 9.41536 29.912 9.79392 30.3796 10.7614Z" fill="#FFC113"/>
<path d="M42.9976 11.6928C42.9125 12.7444 41.9773 13.5436 40.9143 13.4594C39.8515 13.3753 39.0438 12.492 39.0863 11.3984C39.1712 10.3048 40.1066 9.54766 41.1694 9.58971C42.2748 9.67384 43.0825 10.5992 42.9976 11.6928Z" fill="#EF3D3B"/>
<path d="M59.1476 23.5072C59.1053 23.5072 59.0627 23.5072 58.9776 23.5072C58.7651 23.4652 58.595 23.3389 58.4676 23.1287C57.9573 22.077 57.3622 21.0676 56.7243 20.1002C56.6819 20.0582 56.6819 20.016 56.6394 19.974C56.5968 19.9318 56.5968 19.9318 56.5968 19.8898C56.3843 19.5954 56.3843 19.1747 56.6394 18.9223C56.8094 18.7542 56.9369 18.5858 57.0645 18.4176C58.3399 16.5248 57.8722 14.0011 55.9591 12.7392C55.2789 12.2765 54.4712 12.0241 53.6633 12.0241C52.6005 12.0241 51.5802 12.4447 50.8148 13.1598C50.6874 13.286 50.4748 13.3701 50.3046 13.3701C50.1346 13.3701 49.9646 13.3281 49.7946 13.1598C49.752 13.1598 49.6669 13.0757 49.6669 13.0757C48.6041 12.3606 47.5412 11.7717 46.5633 11.3091C46.3508 11.2249 46.2233 11.0146 46.1808 10.8043C46.1382 10.594 46.1808 10.3416 46.3082 10.1734C47.3287 8.91149 48.6892 7.94404 50.2197 7.35517C51.3251 6.93454 52.473 6.72423 53.6633 6.72423C55.5766 6.72423 57.4046 7.27104 58.9776 8.32262C59.3178 8.57498 59.6153 8.78529 59.913 9.03767C62.8891 11.6456 63.9519 15.8518 62.464 19.5113C62.2088 20.1422 61.8686 20.7731 61.486 21.362C60.9758 22.119 60.3807 22.7921 59.6153 23.381C59.4879 23.4652 59.3178 23.5072 59.1476 23.5072Z" fill="#EE538C"/>
</svg>
